<?xml version="1.0" standalone="no"?><!DOCTYPE svg PUBLIC "-//W3C//DTD SVG 1.1//EN" "http://www.w3.org/Graphics/SVG/1.1/DTD/svg11.dtd"><svg t="1734621886177" class="icon" viewBox="0 0 1024 1024" version="1.1" xmlns="http://www.w3.org/2000/svg" p-id="7834" xmlns:xlink="http://www.w3.org/1999/xlink" width="256" height="256"><path d="M572.952381 682.666667H268.190476v73.142857h304.761905v-73.142857z m182.857143 0h-121.904762v73.142857h121.904762v-73.142857z m-365.714286-146.285715h-121.904762v73.142858h121.904762v-73.142858z m182.857143 0h-121.904762v73.142858h121.904762v-73.142858z m182.857143 0h-121.904762v73.142858h121.904762v-73.142858zM121.904762 195.047619a73.142857 73.142857 0 0 1 73.142857-73.142857h633.904762a73.142857 73.142857 0 0 1 73.142857 73.142857v633.904762a73.142857 73.142857 0 0 1-73.142857 73.142857H195.047619a73.142857 73.142857 0 0 1-73.142857-73.142857V414.47619h780.190476v-73.142857H121.904762V195.047619z" p-id="7835" fill="#ffffff"></path></svg>