<?xml version="1.0" standalone="no"?><!DOCTYPE svg PUBLIC "-//W3C//DTD SVG 1.1//EN" "http://www.w3.org/Graphics/SVG/1.1/DTD/svg11.dtd"><svg t="1734621996840" class="icon" viewBox="0 0 1024 1024" version="1.1" xmlns="http://www.w3.org/2000/svg" p-id="8270" xmlns:xlink="http://www.w3.org/1999/xlink" width="256" height="256"><path d="M512 97.52381c228.912762 0 414.47619 185.563429 414.47619 414.47619s-185.563429 414.47619-414.47619 414.47619S97.52381 740.912762 97.52381 512 283.087238 97.52381 512 97.52381z m0 73.142857C323.486476 170.666667 170.666667 323.486476 170.666667 512s152.81981 341.333333 341.333333 341.333333 341.333333-152.81981 341.333333-341.333333S700.513524 170.666667 512 170.666667z m-191.488 486.521904c134.436571-93.037714 248.539429-93.037714 382.976 0l-41.642667 60.14781c-109.372952-75.727238-190.317714-75.727238-299.690666 0zM414.47619 341.333333a48.761905 48.761905 0 0 1 48.761905 48.761905v73.142857a48.761905 48.761905 0 1 1-97.523809 0v-73.142857a48.761905 48.761905 0 0 1 48.761904-48.761905z m195.04762 0a48.761905 48.761905 0 0 1 48.761904 48.761905v73.142857a48.761905 48.761905 0 1 1-97.523809 0v-73.142857a48.761905 48.761905 0 0 1 48.761905-48.761905z" p-id="8271" fill="#ffffff"></path></svg>